<svg width="256" height="256" viewBox="0 0 256 256" fill="none" xmlns="http://www.w3.org/2000/svg">
<g id="Clock">
<circle id="frame" cx="128.226" cy="127.693" r="125" fill="white" stroke="black" stroke-width="5"/>
<circle id="knob" cx="128.226" cy="127.693" r="10" fill="black"/>
<g id="hands">
<rect id="minute" x="122" y="37" width="12" height="90" rx="6" fill="#FD0000"/>
<rect id="hour" x="122.226" y="77.6929" width="12" height="50" rx="6" fill="#B60202"/>
<rect id="second" x="126" y="38" width="4" height="90" rx="2" fill="#FF6767"/>
</g>
<g id="main points">
<g id="07-01">
<rect id="Rectangle 6" x="74.0559" y="231.518" width="10" height="20" rx="5" transform="rotate(-150 74.0559 231.518)" fill="black"/>
<rect id="Rectangle 7" x="181.056" y="46.1884" width="10" height="20" rx="5" transform="rotate(-150 181.056 46.1884)" fill="black"/>
</g>
<g id="08-02">
<rect id="Rectangle 6_2" x="29.4009" y="190.523" width="10" height="20" rx="5" transform="rotate(-120 29.4009 190.523)" fill="black"/>
<rect id="Rectangle 7_2" x="214.73" y="83.523" width="10" height="20" rx="5" transform="rotate(-120 214.73 83.523)" fill="black"/>
</g>
<g id="09-03">
<rect id="Rectangle 6_3" x="11.2258" y="132.693" width="10" height="20" rx="5" transform="rotate(-90 11.2258 132.693)" fill="black"/>
<rect id="Rectangle 7_3" x="225.226" y="132.693" width="10" height="20" rx="5" transform="rotate(-90 225.226 132.693)" fill="black"/>
</g>
<g id="10-04">
<rect id="Rectangle 6_4" x="24.231" y="73.348" width="10" height="20" rx="5" transform="rotate(-60 24.231 73.348)" fill="black"/>
<rect id="Rectangle 7_4" x="209.56" y="180.348" width="10" height="20" rx="5" transform="rotate(-60 209.56 180.348)" fill="black"/>
</g>
<g id="11-05">
<rect id="Rectangle 6_5" x="65.3958" y="28.8679" width="10" height="20" rx="5" transform="rotate(-30 65.3958 28.8679)" fill="black"/>
<rect id="Rectangle 7_5" x="172.396" y="214.197" width="10" height="20" rx="5" transform="rotate(-30 172.396 214.197)" fill="black"/>
</g>
<g id="12-06">
<rect id="Rectangle 6_6" x="123.226" y="10.6929" width="10" height="20" rx="5" fill="black"/>
<rect id="Rectangle 7_6" x="123.226" y="224.693" width="10" height="20" rx="5" fill="black"/>
</g>
</g>
<g id="mini points">
<g id="mini-1">
<g id="Group 1">
<rect id="Rectangle 8" x="114.111" y="11.532" width="4" height="10" rx="2" transform="rotate(-6 114.111 11.532)" fill="#4B4B4B"/>
<rect id="Rectangle 9" x="137.422" y="234.321" width="4" height="10" rx="2" transform="rotate(-6 137.422 234.321)" fill="#4B4B4B"/>
</g>
<g id="Group 2">
<rect id="Rectangle 8_2" x="102.047" y="13.6492" width="4" height="10" rx="2" transform="rotate(-12 102.047 13.6492)" fill="#4B4B4B"/>
<rect id="Rectangle 9_2" x="148.518" y="232.781" width="4" height="10" rx="2" transform="rotate(-12 148.518 232.781)" fill="#4B4B4B"/>
</g>
<g id="Group 3">
<rect id="Rectangle 8_3" x="90.3254" y="16.929" width="4" height="10" rx="2" transform="rotate(-18 90.3254 16.929)" fill="#4B4B4B"/>
<rect id="Rectangle 9_3" x="159.447" y="230.003" width="4" height="10" rx="2" transform="rotate(-18 159.447 230.003)" fill="#4B4B4B"/>
</g>
<g id="Group 4">
<rect id="Rectangle 8_4" x="79.3215" y="21.3199" width="4" height="10" rx="2" transform="rotate(-24 79.3215 21.3199)" fill="#4B4B4B"/>
<rect id="Rectangle 9_4" x="170.337" y="226.002" width="4" height="10" rx="2" transform="rotate(-24 170.337 226.002)" fill="#4B4B4B"/>
</g>
</g>
<g id="mini-2">
<g id="Group 1_2">
<rect id="Rectangle 8_5" x="57.9854" y="34.3837" width="4" height="10" rx="2" transform="rotate(-36 57.9854 34.3837)" fill="#4B4B4B"/>
<rect id="Rectangle 9_5" x="189.568" y="215.669" width="4" height="10" rx="2" transform="rotate(-36 189.568 215.669)" fill="#4B4B4B"/>
</g>
<g id="Group 2_2">
<rect id="Rectangle 8_6" x="48.5962" y="42.2493" width="4" height="10" rx="2" transform="rotate(-42 48.5962 42.2493)" fill="#4B4B4B"/>
<rect id="Rectangle 9_6" x="198.407" y="208.788" width="4" height="10" rx="2" transform="rotate(-42 198.407 208.788)" fill="#4B4B4B"/>
</g>
<g id="Group 3_2">
<rect id="Rectangle 8_7" x="40.0847" y="50.9505" width="4" height="10" rx="2" transform="rotate(-48 40.0847 50.9505)" fill="#4B4B4B"/>
<rect id="Rectangle 9_7" x="206.483" y="200.917" width="4" height="10" rx="2" transform="rotate(-48 206.483 200.917)" fill="#4B4B4B"/>
</g>
<g id="Group 4_2">
<rect id="Rectangle 8_8" x="32.7505" y="60.2551" width="4" height="10" rx="2" transform="rotate(-54 32.7505 60.2551)" fill="#4B4B4B"/>
<rect id="Rectangle 9_8" x="213.913" y="192.007" width="4" height="10" rx="2" transform="rotate(-54 213.913 192.007)" fill="#4B4B4B"/>
</g>
</g>
<g id="mini-3">
<g id="Group 1_3">
<rect id="Rectangle 8_9" x="20.8047" y="82.2366" width="4" height="10" rx="2" transform="rotate(-66 20.8047 82.2366)" fill="#4B4B4B"/>
<rect id="Rectangle 9_9" x="225.401" y="173.444" width="4" height="10" rx="2" transform="rotate(-66 225.401 173.444)" fill="#4B4B4B"/>
</g>
<g id="Group 2_3">
<rect id="Rectangle 8_10" x="16.6062" y="93.7432" width="4" height="10" rx="2" transform="rotate(-72 16.6062 93.7432)" fill="#4B4B4B"/>
<rect id="Rectangle 9_10" x="229.615" y="163.064" width="4" height="10" rx="2" transform="rotate(-72 229.615 163.064)" fill="#4B4B4B"/>
</g>
<g id="Group 3_3">
<rect id="Rectangle 8_11" x="13.5857" y="105.534" width="4" height="10" rx="2" transform="rotate(-78 13.5857 105.534)" fill="#4B4B4B"/>
<rect id="Rectangle 9_11" x="232.674" y="152.21" width="4" height="10" rx="2" transform="rotate(-78 232.674 152.21)" fill="#4B4B4B"/>
</g>
<g id="Group 4_3">
<rect id="Rectangle 8_12" x="11.8865" y="117.259" width="4" height="10" rx="2" transform="rotate(-84 11.8865 117.259)" fill="#4B4B4B"/>
<rect id="Rectangle 9_12" x="234.654" y="140.779" width="4" height="10" rx="2" transform="rotate(-84 234.654 140.779)" fill="#4B4B4B"/>
</g>
</g>
<g id="mini-4">
<g id="Group 1_4">
<rect id="Rectangle 8_13" x="12.5317" y="142.269" width="4" height="10" rx="2" transform="rotate(-96 12.5317 142.269)" fill="#4B4B4B"/>
<rect id="Rectangle 9_13" x="235.321" y="118.958" width="4" height="10" rx="2" transform="rotate(-96 235.321 118.958)" fill="#4B4B4B"/>
</g>
<g id="Group 2_4">
<rect id="Rectangle 8_14" x="14.6492" y="154.333" width="4" height="10" rx="2" transform="rotate(-102 14.6492 154.333)" fill="#4B4B4B"/>
<rect id="Rectangle 9_14" x="233.781" y="107.862" width="4" height="10" rx="2" transform="rotate(-102 233.781 107.862)" fill="#4B4B4B"/>
</g>
<g id="Group 3_4">
<rect id="Rectangle 8_15" x="17.9287" y="166.055" width="4" height="10" rx="2" transform="rotate(-108 17.9287 166.055)" fill="#4B4B4B"/>
<rect id="Rectangle 9_15" x="231.003" y="96.9329" width="4" height="10" rx="2" transform="rotate(-108 231.003 96.9329)" fill="#4B4B4B"/>
</g>
<g id="Group 4_4">
<rect id="Rectangle 8_16" x="22.3198" y="177.059" width="4" height="10" rx="2" transform="rotate(-114 22.3198 177.059)" fill="#4B4B4B"/>
<rect id="Rectangle 9_16" x="227.001" y="86.0432" width="4" height="10" rx="2" transform="rotate(-114 227.001 86.0432)" fill="#4B4B4B"/>
</g>
</g>
<g id="mini-5">
<g id="Group 1_5">
<rect id="Rectangle 8_17" x="35.3835" y="198.395" width="4" height="10" rx="2" transform="rotate(-126 35.3835 198.395)" fill="#4B4B4B"/>
<rect id="Rectangle 9_17" x="216.669" y="66.8124" width="4" height="10" rx="2" transform="rotate(-126 216.669 66.8124)" fill="#4B4B4B"/>
</g>
<g id="Group 2_5">
<rect id="Rectangle 8_18" x="43.249" y="207.784" width="4" height="10" rx="2" transform="rotate(-132 43.249 207.784)" fill="#4B4B4B"/>
<rect id="Rectangle 9_18" x="209.788" y="57.9731" width="4" height="10" rx="2" transform="rotate(-132 209.788 57.9731)" fill="#4B4B4B"/>
</g>
<g id="Group 3_5">
<rect id="Rectangle 8_19" x="51.9502" y="216.295" width="4" height="10" rx="2" transform="rotate(-138 51.9502 216.295)" fill="#4B4B4B"/>
<rect id="Rectangle 9_19" x="201.917" y="49.8971" width="4" height="10" rx="2" transform="rotate(-138 201.917 49.8971)" fill="#4B4B4B"/>
</g>
<g id="Group 4_5">
<rect id="Rectangle 8_20" x="61.2549" y="223.63" width="4" height="10" rx="2" transform="rotate(-144 61.2549 223.63)" fill="#4B4B4B"/>
<rect id="Rectangle 9_20" x="193.007" y="42.4671" width="4" height="10" rx="2" transform="rotate(-144 193.007 42.4671)" fill="#4B4B4B"/>
</g>
</g>
<g id="mini-6">
<g id="Group 1_6">
<rect id="Rectangle 8_21" x="83.2366" y="235.575" width="4" height="10" rx="2" transform="rotate(-156 83.2366 235.575)" fill="#4B4B4B"/>
<rect id="Rectangle 9_21" x="174.444" y="30.9789" width="4" height="10" rx="2" transform="rotate(-156 174.444 30.9789)" fill="#4B4B4B"/>
</g>
<g id="Group 2_6">
<rect id="Rectangle 8_22" x="94.7432" y="239.774" width="4" height="10" rx="2" transform="rotate(-162 94.7432 239.774)" fill="#4B4B4B"/>
<rect id="Rectangle 9_22" x="164.064" y="26.7646" width="4" height="10" rx="2" transform="rotate(-162 164.064 26.7646)" fill="#4B4B4B"/>
</g>
<g id="Group 3_6">
<rect id="Rectangle 8_23" x="106.534" y="242.794" width="4" height="10" rx="2" transform="rotate(-168 106.534 242.794)" fill="#4B4B4B"/>
<rect id="Rectangle 9_23" x="153.21" y="23.7059" width="4" height="10" rx="2" transform="rotate(-168 153.21 23.7059)" fill="#4B4B4B"/>
</g>
<g id="Group 4_6">
<rect id="Rectangle 8_24" x="118.259" y="244.494" width="4" height="10" rx="2" transform="rotate(-174 118.259 244.494)" fill="#4B4B4B"/>
<rect id="Rectangle 9_24" x="141.779" y="21.7264" width="4" height="10" rx="2" transform="rotate(-174 141.779 21.7264)" fill="#4B4B4B"/>
</g>
</g>
</g>
</g>
</svg>
