<svg width="10" height="10" viewBox="0 0 10 10" fill="none" xmlns="http://www.w3.org/2000/svg">
<g opacity="0.75" clip-path="url(#clip0_22_8)">
<path d="M7.17058 5.62505C7.10026 4.99139 6.81674 4.40041 6.36649 3.94903C5.91624 3.49764 5.32599 3.21262 4.69251 3.1407C4.05902 3.06878 3.4199 3.21422 2.87992 3.55319C2.33995 3.89215 1.93116 4.40453 1.72058 5.0063C1.23804 5.04579 0.789485 5.27041 0.468805 5.63313C0.148125 5.99585 -0.0198185 6.46856 0.000128707 6.9523C0.0200759 7.43604 0.226368 7.89331 0.575822 8.2284C0.925276 8.56349 1.3908 8.75041 1.87495 8.75005H7.18745C7.60185 8.74781 7.99839 8.58104 8.28984 8.28644C8.58128 7.99183 8.74375 7.59351 8.74151 7.17911C8.73928 6.76471 8.57251 6.36817 8.2779 6.07673C7.9833 5.78528 7.58498 5.62281 7.17058 5.62505V5.62505Z" fill="white"/>
<path d="M9.09002 6.10753C8.9421 5.84717 8.74238 5.6199 8.50321 5.43974C8.26403 5.25958 7.99046 5.13035 7.6994 5.06003C7.47746 4.2198 6.94562 3.49477 6.21084 3.03073C5.47605 2.56669 4.59282 2.39807 3.73877 2.55878C3.97845 2.11741 4.34545 1.75842 4.792 1.52854C5.23855 1.29866 5.74396 1.20854 6.24245 1.2699C6.74093 1.33127 7.20939 1.54128 7.58686 1.8726C7.96432 2.20392 8.23329 2.64121 8.35877 3.12753C8.72161 3.109 9.07956 3.2175 9.37106 3.43435C9.66255 3.6512 9.86937 3.96285 9.95594 4.3157C10.0425 4.66855 10.0034 5.04053 9.84537 5.36767C9.68733 5.69481 9.42023 5.95665 9.09002 6.10815V6.10753Z" fill="white"/>
</g>
<defs>
<clipPath id="clip0_22_8">
<rect width="10" height="10" fill="white"/>
</clipPath>
</defs>
</svg>
