<svg width="25" height="25" viewBox="0 0 25 25" fill="none" xmlns="http://www.w3.org/2000/svg">
<g clip-path="url(#clip0_6_1007)">
<path d="M7.09125 0C7.32331 0 7.54587 0.0921872 7.70997 0.256282C7.87406 0.420376 7.96625 0.642936 7.96625 0.875V2.51125H17.3625V0.88625C17.3625 0.654186 17.4547 0.431626 17.6188 0.267532C17.7829 0.103437 18.0054 0.01125 18.2375 0.01125C18.4696 0.01125 18.6921 0.103437 18.8562 0.267532C19.0203 0.431626 19.1125 0.654186 19.1125 0.88625V2.51125H22.5C23.1628 2.51125 23.7985 2.77447 24.2673 3.24304C24.7361 3.71161 24.9997 4.34718 25 5.01V22.5012C24.9997 23.1641 24.7361 23.7996 24.2673 24.2682C23.7985 24.7368 23.1628 25 22.5 25H2.5C1.83718 25 1.20148 24.7368 0.732675 24.2682C0.26387 23.7996 0.000331412 23.1641 0 22.5012L0 5.01C0.000331412 4.34718 0.26387 3.71161 0.732675 3.24304C1.20148 2.77447 1.83718 2.51125 2.5 2.51125H6.21625V0.87375C6.21658 0.641902 6.30891 0.419664 6.47297 0.255839C6.63703 0.0920154 6.8594 -2.36579e-07 7.09125 0V0ZM1.75 9.6775V22.5012C1.75 22.5997 1.7694 22.6973 1.80709 22.7883C1.84478 22.8793 1.90003 22.9619 1.96967 23.0316C2.03931 23.1012 2.12199 23.1565 2.21299 23.1942C2.30398 23.2319 2.40151 23.2512 2.5 23.2512H22.5C22.5985 23.2512 22.696 23.2319 22.787 23.1942C22.878 23.1565 22.9607 23.1012 23.0303 23.0316C23.1 22.9619 23.1552 22.8793 23.1929 22.7883C23.2306 22.6973 23.25 22.5997 23.25 22.5012V9.695L1.75 9.6775ZM8.33375 18.2738V20.3562H6.25V18.2738H8.33375ZM13.5413 18.2738V20.3562H11.4587V18.2738H13.5413ZM18.75 18.2738V20.3562H16.6663V18.2738H18.75ZM8.33375 13.3025V15.385H6.25V13.3025H8.33375ZM13.5413 13.3025V15.385H11.4587V13.3025H13.5413ZM18.75 13.3025V15.385H16.6663V13.3025H18.75ZM6.21625 4.26H2.5C2.40151 4.26 2.30398 4.2794 2.21299 4.31709C2.12199 4.35478 2.03931 4.41003 1.96967 4.47967C1.90003 4.54931 1.84478 4.63199 1.80709 4.72299C1.7694 4.81398 1.75 4.91151 1.75 5.01V7.92875L23.25 7.94625V5.01C23.25 4.91151 23.2306 4.81398 23.1929 4.72299C23.1552 4.63199 23.1 4.54931 23.0303 4.47967C22.9607 4.41003 22.878 4.35478 22.787 4.31709C22.696 4.2794 22.5985 4.26 22.5 4.26H19.1125V5.42125C19.1125 5.65331 19.0203 5.87587 18.8562 6.03997C18.6921 6.20406 18.4696 6.29625 18.2375 6.29625C18.0054 6.29625 17.7829 6.20406 17.6188 6.03997C17.4547 5.87587 17.3625 5.65331 17.3625 5.42125V4.26H7.96625V5.41C7.96625 5.64206 7.87406 5.86462 7.70997 6.02872C7.54587 6.19281 7.32331 6.285 7.09125 6.285C6.85919 6.285 6.63663 6.19281 6.47253 6.02872C6.30844 5.86462 6.21625 5.64206 6.21625 5.41V4.26V4.26Z" fill="black"/>
</g>
<defs>
<clipPath id="clip0_6_1007">
<rect width="25" height="25" fill="white"/>
</clipPath>
</defs>
</svg>
