<svg width="50" height="50" viewBox="0 0 50 50" fill="none" xmlns="http://www.w3.org/2000/svg">
<path d="M43.5001 6.45627C41.973 4.92919 40.1355 4.16669 37.9855 4.16669H11.9709C9.82091 4.16669 7.98341 4.92919 6.45633 6.45627C4.92925 7.98335 4.16675 9.82085 4.16675 11.9709V37.9854C4.16675 40.1354 4.92925 41.9729 6.45633 43.5C7.98341 45.0271 9.82091 45.7896 11.9709 45.7896H18.0417C18.4376 45.7896 18.7355 45.775 18.9355 45.7479C19.1682 45.7013 19.3782 45.5772 19.5313 45.3959C19.7292 45.1875 19.8292 44.8854 19.8292 44.4896L19.8147 42.6459C19.8063 41.4709 19.8022 40.5417 19.8022 39.8542L19.1772 39.9625C18.7813 40.0354 18.2813 40.0667 17.6751 40.0584C17.0432 40.0467 16.4133 39.9833 15.7917 39.8688C15.1301 39.7466 14.5072 39.468 13.9751 39.0563C13.4178 38.6347 13.0021 38.0533 12.7834 37.3896L12.5126 36.7646C12.2843 36.2716 11.9975 35.8078 11.6584 35.3834C11.2709 34.8771 10.8772 34.5354 10.4792 34.3542L10.2917 34.2188C10.161 34.1251 10.0421 34.016 9.93758 33.8938C9.83777 33.7803 9.7556 33.6525 9.69383 33.5146C9.63966 33.3875 9.6855 33.2834 9.82925 33.2021C9.97508 33.1188 10.2355 33.0792 10.6167 33.0792L11.1584 33.1625C11.5188 33.2334 11.9667 33.45 12.498 33.8104C13.0356 34.177 13.4847 34.6588 13.8126 35.2209C14.2292 35.9604 14.7292 36.525 15.3167 36.9146C15.9042 37.3021 16.4959 37.4979 17.0917 37.4979C17.6876 37.4979 18.2022 37.4521 18.6376 37.3625C19.0586 37.2755 19.4678 37.1384 19.8563 36.9542C20.0188 35.7459 20.4605 34.8125 21.1834 34.1625C20.2467 34.0707 19.3183 33.9077 18.4063 33.675C17.5163 33.4305 16.6604 33.0757 15.8584 32.6188C15.0193 32.162 14.2782 31.5447 13.6772 30.8021C13.1001 30.0792 12.6251 29.1313 12.2542 27.9584C11.8855 26.7834 11.7001 25.4271 11.7001 23.8917C11.7001 21.7063 12.4126 19.8459 13.8397 18.3084C13.173 16.6667 13.2355 14.8229 14.0292 12.7834C14.5542 12.6188 15.3313 12.7417 16.3605 13.1479C17.3897 13.5542 18.1438 13.9021 18.623 14.1896C19.1022 14.4813 19.4855 14.725 19.7751 14.9229C21.4688 14.4516 23.2191 14.2147 24.9772 14.2188C26.7667 14.2188 28.5001 14.4542 30.1813 14.9229L31.2105 14.2729C32.0021 13.7976 32.8371 13.3986 33.7042 13.0813C34.6626 12.7188 35.3917 12.6209 35.9001 12.7834C36.7126 14.825 36.7834 16.6667 36.1147 18.3104C37.5417 19.8459 38.2563 21.7063 38.2563 23.8938C38.2563 25.4292 38.0709 26.7896 37.7001 27.9709C37.3313 29.1542 36.8522 30.1021 36.2647 30.8167C35.653 31.5498 34.9088 32.1611 34.0709 32.6188C33.1959 33.1063 32.3459 33.4584 31.523 33.675C30.6111 33.9085 29.6827 34.0721 28.7459 34.1646C29.6834 34.9771 30.1542 36.2584 30.1542 38.0104V44.4896C30.1542 44.7959 30.198 45.0438 30.2897 45.2334C30.3318 45.3247 30.3919 45.4066 30.4663 45.4743C30.5408 45.5419 30.6281 45.5939 30.723 45.6271C30.923 45.6979 31.098 45.7438 31.2522 45.7604C31.4063 45.7813 31.6272 45.7875 31.9147 45.7875H37.9855C40.1355 45.7875 41.973 45.025 43.5001 43.4979C45.0251 41.9729 45.7897 40.1334 45.7897 37.9834V11.9709C45.7897 9.82085 45.0251 7.98335 43.498 6.45627H43.5001Z" fill="black"/>
</svg>
