<svg width="12" height="12" viewBox="0 0 12 12" fill="none" xmlns="http://www.w3.org/2000/svg">
<g clip-path="url(#clip0_22_17)">
<path d="M0.207991 6.74982C0.296951 6.67661 0.40582 6.63176 0.520533 6.62106C0.635246 6.61037 0.750531 6.63432 0.851492 6.68982C1.6476 7.12342 2.53996 7.34987 3.44649 7.34832C6.46224 7.34832 8.90424 4.88982 8.90424 1.85982C8.90424 1.46457 8.86299 1.07982 8.78424 0.710068C8.7597 0.596724 8.76909 0.47866 8.81123 0.370619C8.85338 0.262578 8.92643 0.169348 9.02124 0.102569C9.11983 0.0320768 9.23895 -0.00386175 9.36007 0.000342965C9.48119 0.00454768 9.59753 0.0486601 9.69099 0.125819C10.4136 0.714056 10.9958 1.45613 11.3951 2.29794C11.7945 3.13975 12.001 4.06008 11.9995 4.99182C11.9995 8.44932 9.21399 11.2498 5.78199 11.2498C3.19899 11.2498 0.983492 9.66432 0.0444915 7.40682C-0.00303466 7.29436 -0.0127892 7.16953 0.0166932 7.05106C0.0461756 6.93258 0.113303 6.82688 0.207991 6.74982V6.74982Z" fill="white"/>
</g>
<defs>
<clipPath id="clip0_22_17">
<rect width="12" height="12" fill="white"/>
</clipPath>
</defs>
</svg>
