<svg width="24" height="24" viewBox="0 0 24 24" fill="none" xmlns="http://www.w3.org/2000/svg">
<path d="M13.5 14.5605L21.219 22.281C21.3598 22.4218 21.5508 22.5009 21.75 22.5009C21.9491 22.5009 22.1401 22.4218 22.281 22.281C22.4218 22.1401 22.5009 21.9491 22.5009 21.75C22.5009 21.5508 22.4218 21.3598 22.281 21.219L2.78097 1.71897C2.71124 1.64924 2.62846 1.59392 2.53735 1.55619C2.44624 1.51845 2.34859 1.49902 2.24997 1.49902C2.15136 1.49902 2.0537 1.51845 1.9626 1.55619C1.87149 1.59392 1.7887 1.64924 1.71897 1.71897C1.64924 1.7887 1.59392 1.87149 1.55619 1.9626C1.51845 2.0537 1.49902 2.15136 1.49902 2.24997C1.49902 2.34859 1.51845 2.44624 1.55619 2.53735C1.59392 2.62846 1.64924 2.71124 1.71897 2.78097L6.42897 7.48947H5.24997C4.65323 7.48947 4.08094 7.72652 3.65898 8.14848C3.23702 8.57044 2.99997 9.14273 2.99997 9.73947V14.223C2.99997 14.8197 3.23702 15.392 3.65898 15.814C4.08094 16.2359 4.65323 16.473 5.24997 16.473H7.83447L12.2235 20.7855C12.3289 20.8894 12.4626 20.9597 12.608 20.9878C12.7533 21.0158 12.9036 21.0002 13.0401 20.9429C13.1766 20.8857 13.2931 20.7894 13.3749 20.666C13.4567 20.5427 13.5002 20.398 13.5 20.25V14.5605ZM17.5635 14.3805L16.371 13.1895C16.4535 12.8415 16.506 12.444 16.506 11.9985C16.506 10.8765 16.1775 10.0725 15.864 9.55647C15.7093 9.3018 15.5233 9.06748 15.3105 8.85897C15.3016 8.85082 15.2926 8.84282 15.2835 8.83497H15.285C15.1393 8.70798 15.0483 8.52968 15.0309 8.33722C15.0135 8.14477 15.071 7.95303 15.1915 7.80196C15.312 7.6509 15.4862 7.55218 15.6777 7.52638C15.8692 7.50058 16.0633 7.54969 16.2195 7.66347H16.221L16.2225 7.66497L16.2255 7.66797L16.2345 7.67397L16.257 7.69347C16.3557 7.77948 16.4498 7.8706 16.539 7.96647C16.7085 8.15097 16.929 8.41947 17.145 8.77647C17.583 9.49647 18.006 10.566 18.006 11.9985C18.0123 12.814 17.8621 13.6231 17.5635 14.382V14.3805ZM19.839 16.6575L18.7215 15.54C19.2407 14.4344 19.5081 13.2274 19.5045 12.006C19.5082 10.3692 19.0286 8.7678 18.126 7.40247C17.8482 6.97729 17.5319 6.57861 17.181 6.21147C17.0598 6.08594 16.9332 5.96583 16.8015 5.85147L16.785 5.83647C16.6336 5.71119 16.5374 5.53151 16.5172 5.33607C16.4969 5.14062 16.5541 4.94503 16.6765 4.79135C16.799 4.63766 16.9768 4.53816 17.1719 4.51425C17.3669 4.49034 17.5635 4.54392 17.7195 4.66347L17.721 4.66497L17.7255 4.66797L17.736 4.67697L17.769 4.70547C17.94 4.85343 18.1041 5.00909 18.261 5.17197C18.5685 5.49147 18.975 5.96247 19.38 6.57897C20.4432 8.18894 21.0083 10.0766 21.0045 12.006C21.0088 13.6288 20.6082 15.2271 19.839 16.656V16.6575ZM13.4985 10.317L9.27147 6.08997L12.2265 3.21297C12.3322 3.11051 12.4657 3.04143 12.6104 3.01432C12.7551 2.98722 12.9046 3.0033 13.0402 3.06055C13.1758 3.11781 13.2916 3.21371 13.3731 3.3363C13.4546 3.45889 13.4982 3.60276 13.4985 3.74997V10.317Z" fill="black"/>
</svg>
