<svg width="24" height="24" viewBox="0 0 24 24" fill="none" xmlns="http://www.w3.org/2000/svg">
<path d="M15 4.25003V19.746C15 20.825 13.726 21.397 12.92 20.68L8.428 16.686C8.29072 16.5642 8.11353 16.497 7.93 16.497H4.25C3.95453 16.497 3.66194 16.4388 3.38896 16.3258C3.11598 16.2127 2.86794 16.0469 2.65901 15.838C2.45008 15.6291 2.28434 15.381 2.17127 15.1081C2.0582 14.8351 2 14.5425 2 14.247V9.74903C2.00027 9.15246 2.23744 8.58042 2.65936 8.15868C3.08129 7.73694 3.65344 7.50003 4.25 7.50003H7.93C8.11366 7.49981 8.29086 7.4322 8.428 7.31003L12.919 3.31703C13.726 2.60003 15 3.17203 15 4.25003ZM18.992 5.89803C19.1518 5.77963 19.3521 5.72955 19.5488 5.75881C19.7455 5.78806 19.9226 5.89425 20.041 6.05403C21.3164 7.77419 22.0033 9.85963 22 12.001C22.0028 14.1422 21.3155 16.2272 20.04 17.947C19.9203 18.1034 19.744 18.2065 19.549 18.234C19.354 18.2615 19.156 18.2111 18.9978 18.0939C18.8396 17.9766 18.7338 17.8019 18.7034 17.6073C18.6729 17.4127 18.7202 17.214 18.835 17.054C19.919 15.5926 20.5029 13.8206 20.5 12.001C20.5031 10.1811 19.9192 8.40872 18.835 6.94703C18.7763 6.86781 18.7337 6.77779 18.7099 6.68211C18.686 6.58644 18.6812 6.48699 18.6957 6.38947C18.7103 6.29194 18.744 6.19824 18.7948 6.11375C18.8457 6.02925 18.9127 5.9556 18.992 5.89703V5.89803ZM17.143 8.37003C17.2296 8.32306 17.3246 8.29361 17.4226 8.28337C17.5206 8.27313 17.6196 8.28229 17.7141 8.31033C17.8085 8.33838 17.8965 8.38476 17.973 8.44682C18.0495 8.50888 18.1131 8.5854 18.16 8.67203C18.696 9.66203 19 10.797 19 12.001C19.0017 13.163 18.7129 14.307 18.16 15.329C18.1131 15.4157 18.0496 15.4923 17.9731 15.5544C17.8967 15.6166 17.8087 15.663 17.7143 15.6912C17.6198 15.7193 17.5208 15.7285 17.4227 15.7184C17.3247 15.7083 17.2297 15.6789 17.143 15.632C17.0563 15.5851 16.9797 15.5217 16.9176 15.4452C16.8555 15.3687 16.809 15.2807 16.7809 15.1863C16.7527 15.0918 16.7435 14.9928 16.7536 14.8948C16.7638 14.7968 16.7931 14.7017 16.84 14.615C17.26 13.838 17.5 12.948 17.5 12.001C17.5 11.053 17.26 10.163 16.84 9.38603C16.7455 9.2111 16.7244 9.00582 16.7812 8.81531C16.838 8.6248 16.9682 8.46464 17.143 8.37003V8.37003Z" fill="black"/>
</svg>
