<svg width="9" height="9" viewBox="0 0 9 9" fill="none" xmlns="http://www.w3.org/2000/svg">
<g opacity="0.9" clip-path="url(#clip0_22_12)">
<path d="M4.30702 3.51395C4.36889 3.32832 4.63102 3.32832 4.69289 3.51395L5.0557 4.60351C5.13556 4.84303 5.27011 5.06065 5.44869 5.23912C5.62727 5.4176 5.84496 5.55203 6.08452 5.63176L7.17352 5.99457C7.35914 6.05645 7.35914 6.31858 7.17352 6.38045L6.08395 6.74326C5.84444 6.82312 5.62682 6.95767 5.44834 7.13625C5.26986 7.31482 5.13543 7.53252 5.0557 7.77207L4.69289 8.86107C4.67955 8.90172 4.65372 8.93712 4.61907 8.96221C4.58442 8.98731 4.54273 9.00082 4.49995 9.00082C4.45717 9.00082 4.41549 8.98731 4.38084 8.96221C4.34619 8.93712 4.32036 8.90172 4.30702 8.86107L3.9442 7.77151C3.8644 7.53206 3.72994 7.31448 3.55146 7.136C3.37299 6.95753 3.15541 6.82307 2.91595 6.74326L1.82639 6.38045C1.78574 6.36711 1.75035 6.34127 1.72526 6.30663C1.70016 6.27198 1.68665 6.23029 1.68665 6.18751C1.68665 6.14473 1.70016 6.10304 1.72526 6.0684C1.75035 6.03375 1.78574 6.00791 1.82639 5.99457L2.91595 5.63176C3.15541 5.55196 3.37299 5.4175 3.55146 5.23902C3.72994 5.06055 3.8644 4.84297 3.9442 4.60351L4.30702 3.51395V3.51395ZM2.13408 0.645762C2.14215 0.621403 2.15768 0.600205 2.17849 0.585181C2.19929 0.570156 2.22429 0.562069 2.24995 0.562069C2.27561 0.562069 2.30062 0.570156 2.32142 0.585181C2.34223 0.600205 2.35776 0.621403 2.36583 0.645762L2.58352 1.29939C2.68083 1.59076 2.9092 1.81914 3.20058 1.91645L3.8542 2.13414C3.87856 2.1422 3.89976 2.15774 3.91479 2.17854C3.92981 2.19934 3.9379 2.22435 3.9379 2.25001C3.9379 2.27567 3.92981 2.30068 3.91479 2.32148C3.89976 2.34228 3.87856 2.35782 3.8542 2.36589L3.20058 2.58357C3.05687 2.63145 2.9263 2.71214 2.81919 2.81925C2.71208 2.92635 2.63139 3.05693 2.58352 3.20064L2.36583 3.85426C2.35776 3.87862 2.34223 3.89982 2.32142 3.91484C2.30062 3.92987 2.27561 3.93796 2.24995 3.93796C2.22429 3.93796 2.19929 3.92987 2.17849 3.91484C2.15768 3.89982 2.14215 3.87862 2.13408 3.85426L1.91639 3.20064C1.86851 3.05693 1.78782 2.92635 1.68072 2.81925C1.57361 2.71214 1.44303 2.63145 1.29933 2.58357L0.645704 2.36589C0.621345 2.35782 0.600147 2.34228 0.585123 2.32148C0.570098 2.30068 0.562012 2.27567 0.562012 2.25001C0.562012 2.22435 0.570098 2.19934 0.585123 2.17854C0.600147 2.15774 0.621345 2.1422 0.645704 2.13414L1.29933 1.91645C1.44303 1.86857 1.57361 1.78788 1.68072 1.68078C1.78782 1.57367 1.86851 1.44309 1.91639 1.29939L2.13408 0.645762V0.645762ZM6.11039 0.0556997C6.11594 0.0396833 6.12635 0.0257949 6.14016 0.0159656C6.15397 0.00613632 6.1705 0.000854492 6.18745 0.000854492C6.20441 0.000854492 6.22094 0.00613632 6.23475 0.0159656C6.24856 0.0257949 6.25896 0.0396833 6.26452 0.0556997L6.40964 0.491075C6.47433 0.6857 6.62677 0.838137 6.82139 0.902825L7.25677 1.04795C7.27278 1.0535 7.28667 1.06391 7.2965 1.07772C7.30633 1.09153 7.31161 1.10806 7.31161 1.12501C7.31161 1.14196 7.30633 1.15849 7.2965 1.17231C7.28667 1.18612 7.27278 1.19652 7.25677 1.20207L6.82139 1.3472C6.72548 1.37911 6.63833 1.43293 6.56685 1.50441C6.49538 1.57588 6.44155 1.66304 6.40964 1.75895L6.26452 2.19432C6.25896 2.21034 6.24856 2.22423 6.23475 2.23406C6.22094 2.24389 6.20441 2.24917 6.18745 2.24917C6.1705 2.24917 6.15397 2.24389 6.14016 2.23406C6.12635 2.22423 6.11594 2.21034 6.11039 2.19432L5.96527 1.75895C5.93336 1.66304 5.87953 1.57588 5.80806 1.50441C5.73658 1.43293 5.64943 1.37911 5.55352 1.3472L5.1187 1.20207C5.10269 1.19652 5.0888 1.18612 5.07897 1.17231C5.06914 1.15849 5.06386 1.14196 5.06386 1.12501C5.06386 1.10806 5.06914 1.09153 5.07897 1.07772C5.0888 1.06391 5.10269 1.0535 5.1187 1.04795L5.55408 0.902825C5.7487 0.838137 5.90114 0.6857 5.96583 0.491075L6.11039 0.0562622V0.0556997Z" fill="white"/>
</g>
<defs>
<clipPath id="clip0_22_12">
<rect width="9" height="9" fill="white"/>
</clipPath>
</defs>
</svg>
