<svg width="12" height="12" viewBox="0 0 12 12" fill="none" xmlns="http://www.w3.org/2000/svg">
<path d="M6.00008 2.14001C6.08849 2.14001 6.17327 2.10489 6.23578 2.04238C6.2983 1.97987 6.33342 1.89508 6.33342 1.80668V0.636678C6.33342 0.548273 6.2983 0.463488 6.23578 0.400976C6.17327 0.338464 6.08849 0.303345 6.00008 0.303345C5.91168 0.303345 5.82689 0.338464 5.76438 0.400976C5.70187 0.463488 5.66675 0.548273 5.66675 0.636678V1.80668C5.66675 1.89508 5.70187 1.97987 5.76438 2.04238C5.82689 2.10489 5.91168 2.14001 6.00008 2.14001Z" fill="#FFC700"/>
<path d="M6.00008 9.85999C5.91168 9.85999 5.82689 9.8951 5.76438 9.95762C5.70187 10.0201 5.66675 10.1049 5.66675 10.1933V11.3633C5.66675 11.4517 5.70187 11.5365 5.76438 11.599C5.82689 11.6615 5.91168 11.6967 6.00008 11.6967C6.08849 11.6967 6.17327 11.6615 6.23578 11.599C6.2983 11.5365 6.33342 11.4517 6.33342 11.3633V10.1933C6.33342 10.1049 6.2983 10.0201 6.23578 9.95762C6.17327 9.8951 6.08849 9.85999 6.00008 9.85999Z" fill="#FFC700"/>
<path d="M2.79989 3.27001C2.86365 3.32462 2.94568 3.35315 3.02957 3.34991C3.11346 3.34667 3.19304 3.31189 3.25241 3.25253C3.31177 3.19316 3.34655 3.11358 3.34979 3.02969C3.35303 2.9458 3.32449 2.86377 3.26989 2.80001L2.44322 1.97334C2.37945 1.91873 2.29743 1.8902 2.21353 1.89344C2.12964 1.89668 2.05006 1.93145 1.9907 1.99082C1.93133 2.05018 1.89656 2.12976 1.89332 2.21366C1.89007 2.29755 1.91861 2.37957 1.97322 2.44334L2.79989 3.27001Z" fill="#FFC700"/>
<path d="M9.20005 8.72999C9.13629 8.67539 9.05426 8.64685 8.97037 8.65009C8.88648 8.65333 8.8069 8.68811 8.74753 8.74747C8.68817 8.80684 8.65339 8.88642 8.65015 8.97031C8.64691 9.0542 8.67545 9.13623 8.73005 9.19999L9.55672 10.0267C9.62049 10.0813 9.70251 10.1098 9.7864 10.1066C9.8703 10.1033 9.94988 10.0685 10.0092 10.0092C10.0686 9.94982 10.1034 9.87024 10.1066 9.78634C10.1099 9.70245 10.0813 9.62043 10.0267 9.55666L9.20005 8.72999Z" fill="#FFC700"/>
<path d="M2.13989 6.00002C2.13989 5.91162 2.10477 5.82683 2.04226 5.76432C1.97975 5.70181 1.89496 5.66669 1.80656 5.66669H0.636556C0.54815 5.66669 0.463366 5.70181 0.400854 5.76432C0.338342 5.82683 0.303223 5.91162 0.303223 6.00002C0.303223 6.08843 0.338342 6.17321 0.400854 6.23572C0.463366 6.29824 0.54815 6.33335 0.636556 6.33335H1.80656C1.89496 6.33335 1.97975 6.29824 2.04226 6.23572C2.10477 6.17321 2.13989 6.08843 2.13989 6.00002Z" fill="#FFC700"/>
<path d="M11.3634 5.66669H10.1934C10.105 5.66669 10.0203 5.70181 9.95774 5.76432C9.89523 5.82683 9.86011 5.91162 9.86011 6.00002C9.86011 6.08843 9.89523 6.17321 9.95774 6.23572C10.0203 6.29824 10.105 6.33335 10.1934 6.33335H11.3634C11.4518 6.33335 11.5366 6.29824 11.5991 6.23572C11.6617 6.17321 11.6968 6.08843 11.6968 6.00002C11.6968 5.91162 11.6617 5.82683 11.5991 5.76432C11.5366 5.70181 11.4518 5.66669 11.3634 5.66669Z" fill="#FFC700"/>
<path d="M2.79989 8.72999L1.97322 9.55666C1.91861 9.62043 1.89007 9.70245 1.89332 9.78634C1.89656 9.87024 1.93133 9.94982 1.9907 10.0092C2.05006 10.0685 2.12964 10.1033 2.21353 10.1066C2.29743 10.1098 2.37945 10.0813 2.44322 10.0267L3.26989 9.19999C3.32449 9.13623 3.35303 9.0542 3.34979 8.97031C3.34655 8.88642 3.31177 8.80684 3.25241 8.74747C3.19304 8.68811 3.11346 8.65333 3.02957 8.65009C2.94568 8.64685 2.86365 8.67539 2.79989 8.72999Z" fill="#FFC700"/>
<path d="M9.20005 3.27001L10.0267 2.44334C10.0813 2.37957 10.1099 2.29755 10.1066 2.21366C10.1034 2.12976 10.0686 2.05018 10.0092 1.99082C9.94988 1.93145 9.8703 1.89668 9.7864 1.89344C9.70251 1.8902 9.62049 1.91873 9.55672 1.97334L8.73005 2.80001C8.67545 2.86377 8.64691 2.9458 8.65015 3.02969C8.65339 3.11358 8.68817 3.19316 8.74753 3.25253C8.8069 3.31189 8.88648 3.34667 8.97037 3.34991C9.05426 3.35315 9.13629 3.32462 9.20005 3.27001Z" fill="#FFC700"/>
<path d="M6.00008 9.33335C7.84103 9.33335 9.33342 7.84097 9.33342 6.00002C9.33342 4.15907 7.84103 2.66669 6.00008 2.66669C4.15913 2.66669 2.66675 4.15907 2.66675 6.00002C2.66675 7.84097 4.15913 9.33335 6.00008 9.33335Z" fill="#FFC700"/>
</svg>
